<?xml version="1.0" encoding="utf-8"?>
<!-- Generator: Adobe Illustrator 21.1.0, SVG Export Plug-In . SVG Version: 6.00 Build 0)  -->
<svg version="1.1" xmlns="http://www.w3.org/2000/svg" xmlns:xlink="http://www.w3.org/1999/xlink" x="0px" y="0px"
	 viewBox="0 0 606 489" style="enable-background:new 0 0 606 489;" xml:space="preserve">
<style type="text/css">
	.st0{fill:#CCCCCC;}
	.st1{fill:#4D4D4D;}
	.st2{opacity:0.5;fill:none;stroke:#000000;stroke-miterlimit:10;}
	.st3{fill:#B3B3B3;}
	.st4{fill:#808080;}
	.st5{fill:#999999;}
	.st6{fill:#8C8C8C;}
	.st7{fill:none;stroke:#FFFFFF;stroke-width:3;stroke-miterlimit:10;}
	.st8{fill:none;stroke:#FFFFFF;stroke-width:3;stroke-miterlimit:10;stroke-dasharray:6.9388,6.9388;}
	.st9{fill:none;stroke:#FFFFFF;stroke-width:3;stroke-miterlimit:10;stroke-dasharray:7;}
	.st10{fill:none;stroke:#FFFFFF;stroke-width:3;stroke-miterlimit:10;stroke-dasharray:6.9023,6.9023;}
	.st11{fill:none;}
	.st12{font-family:'MyriadPro-Regular';}
	.st13{font-size:30px;}
	.st14{font-family:'MyriadPro-Bold';}
	.st15{font-size:25px;}
</style>
<g id="_x31_">
</g>
<g id="_x32_">
	<path class="st4" d="M301.4,52.9c0,0,78.7-7.3,159,43l-9.5,22.9c0,0-40.2-39.1-102.7-16.7c0,0-45.7,21.2-45.7,67L301.4,52.9z"/>
	<path class="st5" d="M458.2,94.7c0,0,118.3,55.8,108.2,146.2l-73.6-10c0,0,13.9-68.6-43-113.3L458.2,94.7z"/>
	<path class="st3" d="M492.7,230.9c0,0-5.6,90.4-111.6,72.5c0,0-63.6-15.6-79.2-65.8c0,0,17.9,0,15.6-13.4L492.7,230.9z"/>
	<path class="st5" d="M301.9,239.8v142.8c0,0,36.8,0,72.5,6.7s50.2,1.1,50.2,1.1l56.9-123.9c0,0-24,49.7-96.5,36.3
		C385.1,302.8,334.9,298.4,301.9,239.8z"/>
	<path class="st4" d="M422.5,391.6c0,0,145.1-22.3,143.9-150.6l-73.6-10C492.7,230.9,495.5,235.9,422.5,391.6z"/>
	<path class="st3" d="M301.9,198.5v-41.3c0,0,16.7-71.4,94.8-62.5c0,0,109.4,13.4,97.1,136.1l-176.3-5.6
		C317.6,225.3,322.6,220.3,301.9,198.5z"/>
	<path class="st9" d="M180.4,388.8c0,0-31.2-49.1-70.9-159"/>
	<path class="st4" d="M303.7,52.9c0,0-78.7-7.3-159,43l9.5,22.9c0,0,40.2-39.1,102.7-16.7c0,0,45.7,21.2,45.7,67L303.7,52.9z"/>
	<path class="st5" d="M146.9,94.7c0,0-118.3,55.8-108.2,146.2l73.6-10c0,0-13.9-68.6,43-113.3L146.9,94.7z"/>
	<path class="st3" d="M112.3,230.9c0,0,5.6,90.4,111.6,72.5c0,0,63.6-15.6,79.2-65.8c0,0-17.9,0-15.6-13.4L112.3,230.9z"/>
	<path class="st5" d="M303.1,239.8v142.8c0,0-36.8,0-72.5,6.7s-50.2,1.1-50.2,1.1l-56.9-123.9c0,0,24,49.7,96.5,36.3
		C220,302.8,270.2,298.4,303.1,239.8z"/>
	<path class="st4" d="M182.6,391.6c0,0-145.1-22.3-143.9-150.6l73.6-10C112.3,230.9,109.5,235.9,182.6,391.6z"/>
	<path class="st3" d="M303.1,198.5v-41.3c0,0-16.7-71.4-94.8-62.5c0,0-109.4,13.4-97.1,136.1l176.3-5.6
		C287.5,225.3,282.5,220.3,303.1,198.5z"/>
	<path class="st9" d="M182,389.9c0,0-31.2-49.1-70.9-159"/>
	<path class="st9" d="M424.7,388.8c0,0,31.2-49.1,70.9-159"/>
	<g>
		<g>
			<line class="st7" x1="302.5" y1="52.3" x2="302.5" y2="55.8"/>
			<line class="st10" x1="302.5" y1="62.7" x2="302.5" y2="376.8"/>
			<line class="st7" x1="302.5" y1="380.2" x2="302.5" y2="383.7"/>
		</g>
	</g>
	<path class="st9" d="M39.7,238.1c0,0,203.9-33.5,526.7,0"/>
	<path class="st1" d="M318.7,224.2c0,8.6-7.5,15.6-16.7,15.6s-16.7-7-16.7-15.6s16.7-26.8,16.7-26.8S318.7,215.5,318.7,224.2z"/>
</g>
<g id="_x33_">
	<rect x="236" y="415" class="st11" width="136" height="40"/>
	<text transform="matrix(1 0 0 1 278.3652 436.2998)" class="st12 st13">MID</text>
</g>
<g id="Beschriftung">
	<text transform="matrix(1 0 0 1 233.4854 85.6221)" class="st14 st15">AFS</text>
	<text transform="matrix(1 0 0 1 188.835 176.6221)" class="st14 st15">TZ a</text>
	<text transform="matrix(1 0 0 1 176.96 270.6221)" class="st14 st15">TZ p</text>
	<text transform="matrix(1 0 0 1 489.5479 304.6221)" class="st14 st15">PZ p</text>
	<text transform="matrix(1 0 0 1 68.5479 304.6221)" class="st14 st15">PZ p</text>
	<text transform="matrix(1 0 0 1 51.4229 201.6221)" class="st14 st15">PZ a</text>
	<text transform="matrix(1 0 0 1 504.4229 201.6221)" class="st14 st15">PZ a</text>
	<text transform="matrix(1 0 0 1 378.96 270.6221)" class="st14 st15">TZ p</text>
	<text transform="matrix(1 0 0 1 368.835 176.6221)" class="st14 st15">TZ a</text>
	<text transform="matrix(1 0 0 1 204.2725 353.6221)" class="st14 st15">PZ m</text>
	<text transform="matrix(1 0 0 1 344.2725 353.6221)" class="st14 st15">PZ m</text>
	<text transform="matrix(1 0 0 1 325.4854 85.6221)" class="st14 st15">AFS</text>
</g>
</svg>
