<?xml version="1.0" encoding="utf-8"?>
<!-- Generator: Adobe Illustrator 21.1.0, SVG Export Plug-In . SVG Version: 6.00 Build 0)  -->
<svg version="1.1" xmlns="http://www.w3.org/2000/svg" xmlns:xlink="http://www.w3.org/1999/xlink" x="0px" y="0px"
	 viewBox="0 0 1000 944" style="enable-background:new 0 0 1000 944;" xml:space="preserve">
	<script xlink:href="/static/js/query_3.3.1.min.js"></script>

<style type="text/css">
	.st0{fill:#CCCCCC;cursor: pointer;}
	.st1{fill:#4D4D4D;}
	.st2{opacity:0.5;fill:none;stroke:#000000;stroke-miterlimit:10;cursor: pointer;}
	.st3{fill:#B3B3B3;cursor: pointer;}
	.st4{fill:#808080;cursor: pointer;}
	.st5{fill:#999999;cursor: pointer;}
	.st6{fill:#8C8C8C;cursor: pointer;}
	.st7{fill:none;stroke:#FFFFFF;stroke-width:3;stroke-miterlimit:10;cursor: pointer;}
	.st8{fill:none;stroke:#FFFFFF;stroke-width:3;stroke-miterlimit:10;stroke-dasharray:6.9388,6.9388;cursor: pointer;}
	.st9{fill:none;stroke:#FFFFFF;stroke-width:3;stroke-miterlimit:10;stroke-dasharray:7;cursor: pointer;}
	.st10{fill:none;stroke:#FFFFFF;stroke-width:3;stroke-miterlimit:10;stroke-dasharray:6.9023,6.9023;cursor: pointer;}
	.st11{fill:none;cursor: pointer;}
	.st12{font-family:'MyriadPro-Regular';}
	.st13{font-size:30px;}
	.st14{font-family:'MyriadPro-Bold';cursor: pointer;}
	.st15{font-size:25px;cursor: pointer;}

	.colorHovered{fill:#e5e5e5;cursor: pointer;}
	.colorSelected{fill:#33cccc !important;cursor: pointer;}
</style>
<script type="text/javascript"><![CDATA[
function enter(id) {
    var area = document.getElementById(id);
	if(!area.getAttribute("class").includes('colorSelected')){
		area.setAttribute("class", 'colorHovered');
	}
}
function leave(id, defaultClass) {
    var area = document.getElementById(id);
	if(!area.getAttribute("class").includes('colorSelected')){
		area.setAttribute("class", defaultClass);
	}
}
function click(id, defaultClass) {
    window.console.log("asdas");
	var area =$('#' + id);
	if(area.hasClass('colorSelected')){
		window.parent.checkForm(id, 'checkBase', false);
		area.removeClass('colorSelected');
	} else {
		window.parent.checkForm(id, 'checkBase', true);
		area.addClass('colorSelected');
	}	
}
]]></script>

<g id="_x31_">
</g>
<g id="_x32_">
</g>
<g id="_x33_">
</g>
<g id="_x34_">
</g>
<g id="_x35_">
	<g class="st1">
		<g>
			<path class="st6" d="M854.4,899.6C854.4,899.6,854.3,899.6,854.4,899.6c-0.2,0-0.5-0.1-0.5-0.6l0-0.5h1l0,0.6
				C854.8,899.6,854.5,899.6,854.4,899.6z"/>
		</g>
		<g>
			<path class="st6" d="M773.9,899.6l0-0.5l-2-80.4c0-0.3,0.4-26.5-19.1-38.3c-0.3-0.2-21.5-19.4-0.2-56.7c5.5-9.7,6.8-19.1,3.9-27.9
				c-6-17.9-27.5-28.1-29.9-29.2l-19.7,11.1c-0.4,4-6.1,51.1-32.8,74.7c-27.1,23.8-47,24.8-48.3,24.8c-1.7,0.4-40.2,8.1-83.1-33.5
				c-0.4-0.4-35.8-38.1-45.4-59.5c-9.6,21.3-45,59.1-45.4,59.4c-22.8,22.1-44.2,30.1-58.1,32.8c-14.5,2.9-24.2,0.9-25,0.7
				c-1.3,0-21.2-1-48.3-24.8c-26.8-23.6-32.4-70.8-32.8-74.7l-19.7-11.1c-2.4,1.1-23.9,11.4-29.9,29.3c-3,8.9-1.7,18.3,3.9,27.9
				c21.3,37.3,0.1,56.4-0.1,56.6c-19.6,11.8-19.2,38-19.2,38.3l-2,81l-80.9-0.1l0-0.5c-0.1-1.1-0.8-10.6-6.7-76.3
				c-3.8-42.3-10.5-63.5-15.5-73.9c-5.4-11.2-10-12.4-10.1-12.4l-0.2-0.1c-0.3-0.2-32.2-20.6-30.2-68.3c2-47.7,20.2-57.5,20.9-57.9
				c1.7-0.6,39.3-13.4,49.9-6.9c1.6,1,2.5,2.4,2.8,4.1c0.7,4.6,2.3,7.8,5,9.6c3.3,2.2,7.1,1.3,7.1,1.3l0.1,0c3.1,0,9.6-5.8,11.8-8
				l0.1-0.1l0.1,0c0,0,5.5-2.1,5.5-20c0-17.8,8.5-27.4,9.4-28.3c0.4-1,4.6-10.9,5.3-17.8c0.6-6.8,7.3-19.1,8.6-21.2
				c-6.6-7.5-11.7-25.2-11.9-25.9c0-0.3-2.8-18.6-17-28.4c-14.4-9.9-39.3-39.1-39.6-39.4c-21.5-38.8-24.3-74-23-96.7
				c1.5-24.6,8.1-40.3,8.2-40.5c0.1-0.3,12.2-25.2,35.8-45.8c21.8-19,58.3-38.1,108.2-21.2c27.4,9.3,65.8,26.2,92.9,53.4
				c16.2,16.3,20.7,28.8,20.8,28.9c0.1,0.3,9.4,29.7,26.9,31c5.2,0.4,8.5-0.5,9.9-2.8c2.2-3.7-1.6-9.7-1.7-9.8l0,0
				c0,0-5.4-6-19.2-13.8c-14.1-8.1-11.6-29-11.6-29.2c0.2-5.7,1.8-9.4,4.8-11c4.6-2.5,10.6,1.2,10.8,1.3l0.6,0.3l-0.5,0.4
				c0,0-0.3,0.3-0.1,0.6c0.2,0.5,1.6,2.1,12.3,2.6c14.6,0.6,17.8-5,18.1-5.6c0.1-1,0.7-10.1,0.7-22.5c0-6.6-1.7-9.6-3.1-10.9
				c-1.5-1.4-3-1.3-3.1-1.3l-0.1,0l-0.1,0c-1.7-0.3-42.2-7.5-48.2-17.7c-6.1-10.4,2.5-18.4,2.6-18.5c0.5-0.4,12.5-9.5,20.8-6.1
				c8,3.3,24.6,3.3,24.8,3.3l0.2,0c0.1,0,1.8,0.8,3.5-0.3c1.5-1,3.3-3.7,3.3-11.2c0-9,0.9-10.7,2.2-13.2c0.9-1.7,1.9-3.7,2.9-8.9
				c0.8-4.1,0.3-7.2-1.4-9.1c-2.2-2.5-5.7-2.3-5.7-2.3c-0.5,0-12.2,0-17.6-2.7c-5.2-2.6-15.8-4.6-15.9-4.6c-0.4,0-11.5-0.1-15.7-6.3
				c-2-3-2-7,0-11.7c5.4-12.8,15.8-13.6,21.8-11.9c0.2-0.7,1-1.6,17.4,0.3c5.9,0.7,10.3-0.6,13.3-3.7c6.2-6.6,3.9-19.5,3.9-19.7
				l-0.1-0.6H560l-0.1,0.6c0,0.1-2.3,13,3.9,19.7c3,3.2,7.4,4.4,13.3,3.7c16.5-1.9,17.2-1,17.4-0.3c5.9-1.6,16.3-0.9,21.8,11.9
				c2,4.7,2,8.7,0,11.7c-4.2,6.3-15.3,6.3-15.8,6.3c0,0-10.6,2-15.8,4.6c-5.4,2.7-17,2.7-17.5,2.7c-0.1,0-3.6-0.2-5.8,2.3
				c-1.7,1.9-2.2,5-1.4,9.1c1,5.3,2,7.2,2.9,8.9c1.3,2.4,2.2,4.2,2.2,13.2c0,7.5,1.8,10.2,3.3,11.2c1.7,1.1,3.4,0.4,3.5,0.3l0.2,0
				c0.2,0,16.8,0,24.8-3.3c8.4-3.4,20.3,5.7,20.8,6.1c0.1,0.1,8.8,8.1,2.7,18.5c-6,10.2-46.5,17.4-48.2,17.7l-0.1,0l-0.1,0
				c-0.1,0-1.6-0.1-3.1,1.3c-1.4,1.3-3.1,4.3-3.1,10.9c0,12.5,0.6,21.6,0.7,22.5c0.3,0.6,3.5,6.2,18.1,5.6
				c10.7-0.4,12.1-2.1,12.3-2.6c0.1-0.3-0.1-0.6-0.1-0.6l-0.5-0.4l0.6-0.3c0.3-0.2,6.3-3.8,10.8-1.3c3,1.6,4.6,5.3,4.8,11.1
				c0,0.2,2.5,21-11.6,29.1c-13.7,7.9-19.2,13.8-19.2,13.9l0,0c0,0-3.8,6.1-1.6,9.7c1.3,2.2,4.7,3.2,9.9,2.8
				c17.5-1.3,26.8-30.7,26.9-31c0-0.1,4.6-12.6,20.8-29c27.1-27.2,65.4-44,92.9-53.4c49.8-17,86.3,2.2,108.2,21.2
				c23.6,20.6,35.7,45.5,35.8,45.7c0.1,0.2,6.7,15.9,8.2,40.5c1.4,22.7-1.5,57.9-22.9,96.6c-0.3,0.4-25.2,29.6-39.6,39.5
				c-14.2,9.8-16.9,28.1-17,28.3c-0.2,0.8-5.3,18.5-11.9,26c1.2,2.2,7.9,14.4,8.6,21.2c0.6,6.8,4.8,16.8,5.3,17.8
				c0.9,0.9,9.4,10.5,9.4,28.3c0,17.9,5.4,20,5.5,20l0.1,0l0.1,0.1c2.2,2.2,8.7,8,11.8,8l0.1,0c0,0,3.8,0.9,7.1-1.3
				c2.6-1.8,4.3-5,4.9-9.6c0.2-1.7,1.2-3.1,2.8-4.1c10.6-6.5,48.3,6.3,49.9,6.9c0.8,0.4,19,10.2,21,58c1,24.9-7.2,42.2-14.3,52.2
				c-7.7,10.9-15.8,16-15.9,16.1l-0.2,0.1c0,0-4.6,1.2-10.1,12.4c-5,10.4-11.8,31.6-15.5,73.9c-5.8,65.8-6.6,75.3-6.7,76.3l0,0.5
				l-0.5,0L773.9,899.6z M726.5,665.4l0.2,0.1c0.2,0.1,24.2,10.7,30.7,29.9c3.1,9.2,1.7,18.8-3.9,28.8c-20.9,36.5-0.3,55.2-0.1,55.4
				c19.9,12,19.5,38.8,19.5,39.1l2,79.9l79-0.1c0.2-2.6,1.3-15.6,6.6-75.9c7.1-80,24.7-86.8,26.3-87.2c1.6-1,31.6-21.3,29.7-67.4
				c-1-24.6-6.5-38.8-11-46.4c-4.8-8.2-9.4-10.6-9.4-10.7c-0.3-0.1-38.7-13.2-49-6.9c-1.4,0.8-2.1,1.9-2.3,3.4
				c-0.7,4.9-2.5,8.3-5.4,10.3c-3.5,2.3-7.3,1.6-7.8,1.5c-4-0.1-11.5-7.4-12.4-8.2c-0.9-0.4-6.1-3.4-6.1-20.9
				c0-18.2-9.1-27.6-9.2-27.6l-0.1-0.2c-0.2-0.4-4.7-10.8-5.4-18.2c-0.6-7.1-8.5-21-8.6-21.1l-0.2-0.3l0.2-0.3
				c6.5-7.2,11.8-25.6,11.9-25.8c0-0.1,2.9-18.9,17.4-28.9c14.3-9.8,39.1-39,39.4-39.2c21.2-38.4,24.1-73.4,22.7-95.9
				c-1.5-24.5-8.1-40.1-8.1-40.2c-0.1-0.2-12.1-25-35.6-45.4c-13.8-12-28.8-20.2-44.6-24.3c-19.7-5.2-40.8-4.1-62.6,3.4
				c-27.3,9.3-65.5,26.1-92.5,53.1c-16.1,16.1-20.5,28.4-20.5,28.6c-0.4,1.2-9.6,30.3-27.8,31.7c-5.6,0.4-9.3-0.7-10.8-3.3
				c-2.5-4.2,1.5-10.6,1.7-10.8c0.3-0.3,5.6-6.2,19.5-14.2c13.5-7.7,11.1-28,11.1-28.2c-0.2-5.4-1.6-8.8-4.2-10.3
				c-3.4-1.8-8,0.3-9.4,1c0.1,0.3,0.2,0.7,0,1.1c-0.7,1.8-5,2.9-13.2,3.2c-16.2,0.7-19-6-19.1-6.3l0-0.1c0-0.1-0.7-9.5-0.7-22.7
				c0-5.6,1.2-9.5,3.5-11.6c1.7-1.5,3.4-1.5,3.8-1.5c1.8-0.3,41.7-7.6,47.5-17.3c5.7-9.7-2.1-16.9-2.4-17.2c-0.1-0.1-12-9.1-19.8-5.9
				c-8,3.2-23.6,3.4-25.1,3.4c-0.5,0.2-2.4,0.8-4.3-0.4c-2.5-1.6-3.8-5.7-3.8-12.1c0-8.8-0.9-10.4-2-12.7c-0.9-1.7-2-3.8-3-9.2
				c-0.8-4.4-0.3-7.8,1.7-10c2.5-2.8,6.4-2.6,6.5-2.6c0.1,0,11.9,0,17-2.6c5.3-2.7,15.7-4.6,16.2-4.7c0.2,0,11.2-0.1,15-5.9
				c1.8-2.7,1.8-6.3-0.1-10.7c-7-16.7-21.4-11.1-22-10.9l-0.4-0.9c0.1-0.1,0.3-0.1,0.4-0.2c-0.9-0.2-4.2-0.4-16.1,1
				c-6.2,0.7-10.9-0.6-14.1-4c-5.8-6.2-4.6-17.3-4.2-19.9H435.9c0.4,2.7,1.6,13.7-4.2,19.9c-3.2,3.4-7.9,4.8-14.1,4
				c-12-1.4-15.2-1.2-16.1-1c0.1,0.1,0.3,0.2,0.4,0.2l-0.4,0.9c-0.6-0.2-15-5.8-22,10.9c-1.9,4.4-1.9,8-0.1,10.7
				c3.9,5.8,14.8,5.9,15,5.9c0.5,0.1,10.9,2.1,16.3,4.7c5.1,2.6,17,2.6,17.1,2.6c0.1,0,4-0.2,6.5,2.6c1.9,2.2,2.5,5.6,1.7,10
				c-1,5.4-2.1,7.5-3,9.2c-1.2,2.3-2,4-2,12.7c0,6.4-1.3,10.4-3.8,12.1c-1.9,1.2-3.8,0.6-4.3,0.4c-1.5,0-17.1-0.1-25.1-3.4
				c-7.8-3.2-19.7,5.8-19.8,5.9c-0.3,0.3-8.1,7.5-2.4,17.2c5.7,9.7,45.7,16.9,47.5,17.3c0.4,0,2.1,0,3.8,1.5c2.3,2.1,3.5,6,3.5,11.6
				c0,13.2-0.7,22.6-0.7,22.7l0,0.1c-0.1,0.3-2.9,7-19.1,6.3c-8.2-0.3-12.5-1.4-13.2-3.2c-0.2-0.4-0.1-0.8,0-1.1
				c-1.4-0.8-6-2.9-9.4-1c-2.6,1.4-4,4.8-4.2,10.2c0,0.2-2.5,20.5,11.1,28.2c13.9,7.9,19.2,13.9,19.5,14.1c0.2,0.3,4.2,6.7,1.7,10.9
				c-1.5,2.6-5.2,3.7-10.8,3.3c-18.1-1.3-27.4-30.4-27.8-31.7c0-0.1-4.5-12.4-20.6-28.6c-26.9-27-65.1-43.8-92.4-53.1
				c-21.8-7.4-42.9-8.5-62.6-3.4c-15.8,4.2-30.8,12.3-44.6,24.3c-23.5,20.4-35.4,45.2-35.5,45.4c-0.1,0.1-6.7,15.7-8.1,40.2
				c-1.4,22.6,1.5,57.6,22.8,96c0.2,0.2,25,29.3,39.3,39.2c14.5,10,17.4,28.8,17.4,29c0,0.1,5.4,18.6,11.9,25.7l0.2,0.3l-0.2,0.3
				c-0.1,0.1-8,14-8.6,21.1c-0.7,7.3-5.2,17.7-5.4,18.2l-0.1,0.2c-0.1,0.1-9.2,9.4-9.2,27.6c0,17.5-5.2,20.5-6.1,20.9
				c-0.9,0.9-8.4,8.2-12.4,8.2c-0.5,0.1-4.3,0.9-7.8-1.5c-2.9-1.9-4.7-5.4-5.4-10.3c-0.2-1.4-1-2.5-2.3-3.4
				c-10.2-6.3-48.6,6.8-49,6.9l0,0c0,0-4.6,2.4-9.4,10.6c-4.4,7.6-9.9,21.8-11,46.4c-1.9,46.2,28.1,66.4,29.7,67.4
				c1.6,0.5,19.2,7.2,26.3,87.2c5.3,60.3,6.4,73.3,6.6,75.9l79,0.1l2-80c0-0.2-0.4-27.1,19.6-39.1c0.1-0.1,20.7-18.8-0.2-55.3
				c-5.7-9.9-7-19.6-3.9-28.8c6.4-19.3,30.4-29.8,30.7-29.9l0.2-0.1l20.6,11.6l0,0.3c0,0.5,5,50.1,32.5,74.3
				c27.5,24.2,47.5,24.5,47.7,24.5l0.1,0c0.4,0.1,38.9,8.8,82.2-33.2c0.4-0.4,36.9-39.3,45.6-60.2l0.5-1.1l0.5,1.1
				c8.7,20.9,45.3,59.8,45.6,60.2c22.6,21.9,43.7,29.8,57.5,32.5c14.9,3,24.6,0.7,24.7,0.7l0.1,0c0.2,0,20.2-0.3,47.7-24.5
				c27.5-24.2,32.5-73.8,32.5-74.3l0-0.3l0.2-0.1L726.5,665.4z M607.5,719.5c-0.9,0-1.9-0.1-3-0.2c-8.3-1.3-21.3-8.9-36.6-37.7
				l-0.2-0.4l0.3-0.3c0.4-0.3,35.8-26.1,66.3-28.1l0.5,0l0,0.5c0,0.3,0.6,32.3-5.4,47.5c-5.4,13.9-10.4,15-11.6,15
				C617.1,716.6,613.5,719.5,607.5,719.5z M569,681.5c15,28.1,27.7,35.5,35.7,36.8c7.9,1.3,12.6-3.2,12.7-3.2l0.2-0.2l0.2,0
				c0.1,0,5.1,0.2,10.8-14.4l0.5,0.2l-0.5-0.2c5.5-14,5.4-42.4,5.3-46.6C605.5,656,572.8,678.8,569,681.5z M387.1,719.5
				c-5.9,0-9.6-2.9-10.4-3.6c-1.2-0.1-6.2-1.2-11.6-15c-6-15.3-5.4-47.2-5.4-47.5l0-0.5l0.5,0c30.5,2,65.9,27.8,66.3,28.1l0.3,0.3
				l-0.2,0.4c-15.3,28.8-28.3,36.4-36.6,37.7C389.1,719.4,388.1,719.5,387.1,719.5z M377.1,714.9l0.2,0.2c0,0,4.8,4.5,12.7,3.2
				c8-1.3,20.6-8.7,35.6-36.8c-3.7-2.7-36.4-25.5-64.9-27.6c0,4.2-0.2,32.6,5.3,46.6c5.7,14.6,10.8,14.4,10.8,14.4L377.1,714.9z
				 M519.8,638.1l0.1-0.8c0.3-2.5,2.8-24.6,5.5-27.1c0.7-0.6,1.9-0.9,3.7-1.2c2.9-0.6,6.9-1.3,10.2-4.5c3.8-3.7,5.8-9.9,5.9-18.6
				c-2.6,0.2-12.9,1-15.8-3.3c-1.2-1.7-1-4,0.6-6.8c6.7-12,20.8-16.9,20.9-16.9c0.4-0.1,36.4-12.9,39-44.9
				c0.8-9.4,4.2-16.2,10.1-20.2c10.8-7.2,26-2.5,26.6-2.3c0.1,0,16.3,2.9,20.8-3.3c1.7-2.4,4.4-3.4,7.3-2.7
				c4.8,1.1,10.4,6.9,12.2,17.4c2.9,16.8-4.1,42.2-15.4,56.7l0,0c-11.9,15.2-24,22.7-24.1,22.8l-0.2,0.1c-0.1,0-1.6,0.4-2.8,2.2
				c-1.4,2.3-1.5,5.9-0.2,10.5c3.4,12.3-37.9,31.1-39.6,31.9c-0.3,0.1-18.9,4.7-33.5,4.4c-14.4-0.3-30.3,6.2-30.5,6.3L519.8,638.1z
				 M546.2,584.8v0.6c0,21.4-11,23.5-17,24.6c-1.5,0.3-2.7,0.5-3.2,1c-1.8,1.7-4,16-5.1,25.7c3.4-1.3,17.3-6.3,30.1-6.1
				c14.4,0.3,33-4.3,33.2-4.3c0.3-0.2,42.2-19.3,39-30.7c-1.4-4.9-1.3-8.7,0.3-11.3c1.2-2,2.9-2.5,3.3-2.6c1-0.6,12.5-8,23.8-22.5
				c11.2-14.3,18-39.4,15.2-55.9c-1.7-10-7-15.6-11.5-16.6c-2.6-0.6-4.8,0.2-6.3,2.3c-4.8,6.7-21.1,3.8-21.8,3.7
				c-0.2-0.1-15.4-4.8-25.8,2.1c-5.6,3.8-8.9,10.3-9.6,19.4c-2.7,32.6-39.3,45.6-39.7,45.8c-0.1,0-13.9,4.8-20.4,16.4
				c-1.3,2.4-1.6,4.4-0.6,5.8c2.9,4.3,15.3,2.8,15.4,2.8L546.2,584.8z M474.9,638.1l-0.8-0.3c-0.2-0.1-16.1-6.6-30.5-6.3l0-0.5l0,0.5
				c-14.6,0.3-33.3-4.3-33.4-4.3c-1.8-0.8-43.1-19.7-39.7-32c1.3-4.6,1.2-8.2-0.2-10.5c-1.1-1.8-2.7-2.2-2.8-2.2l-0.2-0.1
				c-0.1-0.1-12.2-7.6-24.1-22.8c-11.4-14.5-18.3-40-15.4-56.7c1.8-10.5,7.4-16.3,12.2-17.4c2.9-0.7,5.6,0.3,7.3,2.7
				c4.4,6.2,20.7,3.3,20.8,3.3c0.6-0.2,15.8-4.9,26.5,2.3c5.9,3.9,9.3,10.7,10.1,20.2c2.6,32,38.6,44.8,39,44.9
				c0.1,0,14.3,4.9,20.9,16.9c1.5,2.8,1.7,5.1,0.6,6.8c-2.9,4.3-13.3,3.6-15.8,3.3c0.1,8.6,2.1,14.9,5.9,18.6
				c3.3,3.2,7.3,3.9,10.2,4.5c1.7,0.3,3,0.6,3.7,1.2c2.7,2.6,5.2,24.6,5.5,27.1L474.9,638.1z M444.7,630.5c12.5,0,25.7,4.8,29,6.1
				c-1.1-9.7-3.3-24-5.1-25.7c-0.5-0.4-1.7-0.7-3.2-1c-5.9-1.1-17-3.2-17-24.6v-0.6l0.6,0.1c0.1,0,12.6,1.5,15.4-2.8
				c0.9-1.4,0.7-3.3-0.6-5.8c-6.5-11.7-20.2-16.4-20.4-16.4c-0.4-0.1-37-13.2-39.7-45.8c-0.7-9.1-4-15.6-9.6-19.4
				c-10.4-6.9-25.6-2.2-25.7-2.2c-0.8,0.1-17.1,3-21.9-3.7c-1.5-2.1-3.7-2.9-6.3-2.3c-4.5,1-9.8,6.6-11.5,16.6
				c-2.8,16.5,4,41.6,15.2,55.9c11.3,14.5,22.8,21.9,23.8,22.5c0.4,0.1,2.1,0.7,3.3,2.6c1.6,2.6,1.7,6.4,0.3,11.3
				c-3.2,11.5,38.7,30.6,39.1,30.7c0.1,0,18.7,4.6,33.1,4.3C443.9,630.5,444.3,630.5,444.7,630.5z"/>
		</g>
		<g>
			<path class="st6" d="M140.3,899.6c-0.1,0-0.5-0.1-0.5-0.6l-0.1-0.6h1l0,0.5C140.8,899.5,140.4,899.6,140.3,899.6
				C140.3,899.6,140.3,899.6,140.3,899.6z"/>
		</g>
	</g>
	<path class="st3" d="M554.8,316.5c-7.5-12-28.5-37-28.5-37s0.5-185-2.5-193S497.3,79,497.3,79s-23.5-0.5-26.5,7.5s-2.5,193-2.5,193
		s-21,25-28.5,37c0,0-85.5,99.5-222.5,365.5c0,0,15,14,25.5,0s22-50,52.5-102s94.5-150,94.5-150s26,48,25,106c0,0,17,1,17-4.5
		s4.5-19.5-14-85c0,0-11.4-33.5,3.5-55.5s67.3-75,67.3-75l8.7-4.5l8.7,4.5c0,0,52.3,53,67.3,75s3.5,55.5,3.5,55.5
		c-18.5,65.5-14,79.5-14,85s17,4.5,17,4.5c-1-58,25-106,25-106s64,98,94.5,150s42,88,52.5,102s25.5,0,25.5,0
		C640.3,416,554.8,316.5,554.8,316.5z"/>
	<g>
		<ellipse class="st4" id="LKaortalr" onmouseover="enter('LKaortalr')" onmouseout="leave('LKaortalr', 'st4')" onclick="click('LKaortalr', 'st4')" cx="448.5" cy="218.5" rx="12.5" ry="20.5"/>
		<ellipse class="st4" id="LKaortall" onmouseover="enter('LKaortall')" onmouseout="leave('LKaortall', 'st4')" onclick="click('LKaortall', 'st4')" cx="581" cy="218.5" rx="12.5" ry="20.5"/>
		<ellipse class="st4" cx="448.5" cy="373.5" rx="12.5" ry="20.5"/>
		<ellipse class="st4" cx="568.5" cy="373.5" rx="12.5" ry="20.5"/>
		<ellipse class="st4" cx="568.5" cy="488.5" rx="12.5" ry="20.5"/>
		<ellipse class="st4" cx="433.5" cy="482.5" rx="12.5" ry="20.5"/>
		<ellipse class="st4" cx="318.7" cy="482.5" rx="12.5" ry="20.5"/>
		<ellipse class="st4" cx="284.6" cy="610.5" rx="12.5" ry="20.5"/>
		<ellipse class="st4" cx="183" cy="715.4" rx="12.5" ry="20.5"/>
		<ellipse class="st4" cx="501.2" cy="610.5" rx="12.5" ry="20.5"/>
		<ellipse class="st4" cx="698.2" cy="487.8" rx="12.5" ry="20.5"/>
		<ellipse class="st4" cx="710.7" cy="610.5" rx="12.5" ry="20.5"/>
		<ellipse class="st4" cx="803.7" cy="735.9" rx="12.5" ry="20.5"/>
	</g>
</g>
<g id="Beschriftung">
	<text transform="matrix(1 0 0 1 466.1885 174.1373)" class="st5 st7 st8">Aortic</text>
	<text transform="matrix(1 0 0 1 568.4724 273.6321)"><tspan x="0" y="0" class="st5 st7 st8">Inferior</tspan><tspan x="0" y="30" class="st5 st7 st8">mesenteric</tspan></text>
	<text transform="matrix(1 0 0 1 276.7229 352.9998)"><tspan x="0" y="0" class="st5 st7 st8">Common</tspan><tspan x="56.3" y="30" class="st5 st7 st8">iliac</tspan></text>
	<text transform="matrix(1 0 0 1 239.2771 471.4998)"><tspan x="0" y="0" class="st5 st7 st8">Iliac</tspan><tspan x="-47.5" y="30" class="st5 st7 st8">external</tspan></text>
	<text transform="matrix(1 0 0 1 393.7354 530.9963)"><tspan x="0" y="0" class="st5 st7 st8">Iliac</tspan><tspan x="-42.8" y="30" class="st5 st7 st8">internal</tspan></text>
	<text transform="matrix(1 0 0 1 454.1387 714.8709)" class="st5 st7 st8">Prostate</text>
	<text transform="matrix(1 0 0 1 149.2527 610.5002)" class="st5 st7 st8">Inguinal</text>
	<text transform="matrix(1 0 0 1 103.7722 766.5757)" class="st5 st7 st8">Femoral</text>
</svg>
