<?xml version="1.0" encoding="utf-8"?>
<!-- Generator: Adobe Illustrator 21.1.0, SVG Export Plug-In . SVG Version: 6.00 Build 0)  -->
<svg version="1.1" xmlns="http://www.w3.org/2000/svg" xmlns:xlink="http://www.w3.org/1999/xlink" x="0px" y="0px"
	 viewBox="0 0 606 489" style="enable-background:new 0 0 606 489;" xml:space="preserve">
<style type="text/css">
	.st0{fill:#CCCCCC;}
	.st1{fill:#4D4D4D;}
	.st2{opacity:0.5;fill:none;stroke:#000000;stroke-miterlimit:10;}
	.st3{fill:#B3B3B3;}
	.st4{fill:#808080;}
	.st5{fill:#999999;}
	.st6{fill:#8C8C8C;}
	.st7{fill:none;stroke:#FFFFFF;stroke-width:3;stroke-miterlimit:10;}
	.st8{fill:none;stroke:#FFFFFF;stroke-width:3;stroke-miterlimit:10;stroke-dasharray:6.9388,6.9388;}
	.st9{fill:none;stroke:#FFFFFF;stroke-width:3;stroke-miterlimit:10;stroke-dasharray:7;}
	.st10{fill:none;stroke:#FFFFFF;stroke-width:3;stroke-miterlimit:10;stroke-dasharray:6.9023,6.9023;}
	.st11{fill:none;}
	.st12{font-family:'MyriadPro-Regular';}
	.st13{font-size:30px;}
	.st14{font-family:'MyriadPro-Bold';}
	.st15{font-size:25px;}

	.colorHovered{fill:#e5e5e5}
	.colorSelected{fill:#33cccc !important}
</style>

<script type="text/javascript"><![CDATA[
function enter(id) {
    var area = document.getElementById(id);
	if(!area.getAttribute("class").includes('colorSelected')){
		area.setAttribute("class", 'colorHovered');
	}
}
function leave(id, defaultClass) {
    var area = document.getElementById(id);
	if(!area.getAttribute("class").includes('colorSelected')){
		area.setAttribute("class", defaultClass);
	}
}
function click(id, defaultClass) {
	var prevSelecteds = document.getElementsByClassName("colorSelected");
	if(prevSelecteds.length > 0){
		prevSelecteds[0].classList.remove('colorSelected');
	}
	window.parent.checkForm(id, 'checkApex');
    var area = document.getElementById(id);
	area.setAttribute("class", 'colorSelected ' + defaultClass);
}
]]></script>

<g id="_x31_">
</g>
<g id="_x32_">
</g>
<g id="_x33_">
	<path class="st4" id="AFSapexrechts" onmouseover="enter('AFSapexrechts', 'st4')" onmouseout="leave('AFSapexrechts', 'st4')" onclick="click('AFSapexrechts', 'st4')"
	d="M306.5,168.3V50.1c0,0,60.5-2.9,121.1,20.2c0,0-29.6,10.8-28.1,33.9C399.5,104.2,330.3,73.9,306.5,168.3z"/>
	<path class="st5" id="PZaapexrechts" onmouseover="enter('PZaapexrechts', 'st5')" onmouseout="leave('PZaapexrechts', 'st5')" onclick="click('PZaapexrechts', 'st5')"
	d="M398.8,103.5c0,0,86.5,30.3,82.2,126.9l95.1,10.1c0,0,13-108.1-148.5-170.1C427.6,70.3,398.8,80.4,398.8,103.5
		z"/>
	<path class="st4"  id="PZpapexrechts" onmouseover="enter('PZpapexrechts', 'st4')" onmouseout="leave('PZpapexrechts', 'st4')" onclick="click('PZpapexrechts', 'st4')"
	d="M480.9,230.3l-59.1,164.3c0,0,151.4,1.4,154.2-154.2L480.9,230.3z"/>
	<path class="st5" id="PZmapexrechts" onmouseover="enter('PZmapexrechts', 'st5')" onmouseout="leave('PZmapexrechts', 'st5')" onclick="click('PZmapexrechts', 'st5')"
	d="M307.2,356.4V257c0,0,111.7,71.4,167.9-7.9l-50.5,145.6c0,0-39.6,6.5-64.1-15.1S307.2,356.4,307.2,356.4z"/>
	<path class="st3" id="TZpapexrechts" onmouseover="enter('TZpapexrechts', 'st3')" onmouseout="leave('TZpapexrechts', 'st3')" onclick="click('TZpapexrechts', 'st3')"
	d="M308,257.7v-17.3c0,0,28.8,5.8,28.8-15.9l144.2,5.8c0,0-4.3,59.1-85.1,56.2C395.9,286.5,355.5,289.4,308,257.7
		z"/>
	<path class="st3" id="TZaapexrechts" onmouseover="enter('TZaapexrechts', 'st3')" onmouseout="leave('TZaapexrechts', 'st3')" onclick="click('TZaapexrechts', 'st3')"
	d="M308,214.4l-1.4-51.9c0,0,21.6-83.6,87.9-60.5c0,0,93.7,28.8,86.5,129.7L336.8,226
		C336.8,226,339,202.2,308,214.4z"/>
	<path class="st4" id="AFSapexlinks" onmouseover="enter('AFSapexlinks', 'st4')" onmouseout="leave('AFSapexlinks', 'st4')" onclick="click('AFSapexlinks', 'st4')"
	d="M309.7,168.3V50.1c0,0-60.5-2.9-121.1,20.2c0,0,29.6,10.8,28.1,33.9C216.7,104.2,285.9,73.9,309.7,168.3z"/>
	<path class="st5" id="PZaapexlinks" onmouseover="enter('PZaapexlinks', 'st5')" onmouseout="leave('PZaapexlinks', 'st5')" onclick="click('PZaapexlinks', 'st5')"
	d="M217.4,103.5c0,0-86.5,30.3-82.2,126.9l-95.1,10.1c0,0-13-108.1,148.5-170.1
		C188.6,70.3,217.4,80.4,217.4,103.5z"/>
	<path class="st4" id="PZpapexlinks" onmouseover="enter('PZpapexlinks', 'st4')" onmouseout="leave('PZpapexlinks', 'st4')" onclick="click('PZpapexlinks', 'st4')"
	d="M135.2,230.3l59.1,164.3c0,0-151.4,1.4-154.2-154.2L135.2,230.3z"/>
	<path class="st5" id="PZmapexlinks" onmouseover="enter('PZmapexlinks', 'st5')" onmouseout="leave('PZmapexlinks', 'st5')" onclick="click('PZmapexlinks', 'st5')"
	d="M308.9,356.4V257c0,0-111.7,71.4-167.9-7.9l50.5,145.6c0,0,39.6,6.5,64.1-15.1S308.9,356.4,308.9,356.4z"/>
	<path class="st3" id="TZpapexlinks" onmouseover="enter('TZpapexlinks', 'st3')" onmouseout="leave('TZpapexlinks', 'st3')" onclick="click('TZpapexlinks', 'st3')"
	d="M308.2,257.7v-17.3c0,0-28.8,5.8-28.8-15.9l-144.2,5.8c0,0,4.3,59.1,85.1,56.2
		C220.3,286.5,260.6,289.4,308.2,257.7z"/>
	<path class="st3" id="TZaapexlinks" onmouseover="enter('TZaapexlinks', 'st3')" onmouseout="leave('TZaapexlinks', 'st3')" onclick="click('TZaapexlinks', 'st3')"
	d="M308.2,214.4l1.4-51.9c0,0-21.6-83.6-87.9-60.5c0,0-93.7,28.8-86.5,129.7l144.2-5.8
		C279.4,226,277.2,202.2,308.2,214.4z"/>
	<path class="st9" d="M191,391.9c0,0-23.4-49.1-53-159"/>
	<path class="st9" d="M427.7,390.8c0,0,23.5-49.6,53.3-160.8"/>
	<g>
		<g>
			<line class="st7" x1="308.5" y1="54.3" x2="308.5" y2="57.8"/>
			<line class="st10" x1="308.5" y1="64.7" x2="308.5" y2="378.8"/>
			<line class="st7" x1="308.5" y1="382.2" x2="308.5" y2="385.7"/>
		</g>
	</g>
	<path class="st9" d="M45.7,240.1c0,0,203.9-33.5,526.7,0"/>
	<path class="st1" d="M336.8,223.1c-1.4-21.4-28.2-9-28.8-8.7c-0.6-0.3-27.4-12.7-28.8,8.7c-1.4,21.6,23.1,18.7,23.1,18.7h5.7h0.1
		h5.7C313.7,241.8,338.2,244.7,336.8,223.1z"/>
	<rect x="241" y="406" class="st11" width="136" height="40"/>
	<text transform="matrix(1 0 0 1 275.895 427.2998)" class="st12 st13">APEX</text>
</g>
<g id="Beschriftung">
	<text transform="matrix(1 0 0 1 238.4854 85.6221)" class="st14 st15">AFS</text>
	<text transform="matrix(1 0 0 1 193.835 176.6221)" class="st14 st15">TZ a</text>
	<text transform="matrix(1 0 0 1 191.96 266.6221)" class="st14 st15">TZ p</text>
	<text transform="matrix(1 0 0 1 494.5479 304.6221)" class="st14 st15">PZ p</text>
	<text transform="matrix(1 0 0 1 73.5479 304.6221)" class="st14 st15">PZ p</text>
	<text transform="matrix(1 0 0 1 76.4229 181.6221)" class="st14 st15">PZ a</text>
	<text transform="matrix(1 0 0 1 489.4229 181.6221)" class="st14 st15">PZ a</text>
	<text transform="matrix(1 0 0 1 373.96 266.6221)" class="st14 st15">TZ p</text>
	<text transform="matrix(1 0 0 1 373.835 176.6221)" class="st14 st15">TZ a</text>
	<text transform="matrix(1 0 0 1 209.2725 333.6221)" class="st14 st15">PZ m</text>
	<text transform="matrix(1 0 0 1 349.2725 333.6221)" class="st14 st15">PZ m</text>
	<text transform="matrix(1 0 0 1 330.4854 85.6221)" class="st14 st15">AFS</text>
</g>
</svg>
